<svg width="800" height="600" xmlns="http://www.w3.org/2000/svg">

 <g>
  <title>Layer 1</title>
  <path d="m283,280c-1,0 -1.29291,0.29291 -2,1c-0.70709,0.70709 -2,1 -4,2c-2,1 -4,2 -6,3c-2,1 -3.59399,2.513 -6,4c-2.69,1.66251 -5.186,2.69254 -7,4c-1.14728,0.8269 -3,2 -4,3c-1,1 -2,2 -3,3c-1,1 -1.4588,1.69345 -2,3c-0.38269,0.92389 -0.77025,2.02676 -1,3c-0.51375,2.17624 -1.48625,2.82376 -2,5c-0.22975,0.97324 -0.5405,3.0535 -1,5c-0.51375,2.17624 -0.5405,4.0535 -1,6c-0.51375,2.17624 -1.49345,3.87857 -2,7c-0.32036,1.97418 0,4 0,6c0,2 0,4 0,5c0,2 0,4 0,5c0,1 0,2 0,4c0,1 -0.38269,2.07611 0,3c0.5412,1.30655 0.69255,2.186 2,4c0.8269,1.14728 1.77025,3.02676 2,4c0.51375,2.17624 1,3 2,5c1,2 1.77025,3.02676 2,4c0.51375,2.17624 2.4588,3.69345 3,5c0.76537,1.84775 1.61731,3.07611 2,4c1.0824,2.61313 2.69254,4.186 4,6c0.8269,1.14728 2.71411,3.21167 5,6c1.79318,2.18735 3,3 4,4c2,2 3.70547,3.34619 6,5c1.814,1.30746 4,3 6,4c2,1 3.70547,3.34619 6,5c1.814,1.30746 4.38687,2.9176 7,4c1.84775,0.76538 5,2 7,3c2,1 4,1 7,2c3,1 5.03873,1.51944 8,2c3.12143,0.50653 4.87857,1.49347 8,2c2.96127,0.48056 5.90778,1.49622 10,2c2.97751,0.36655 7.02997,-0.48874 11,0c4.09222,0.50378 9.02997,0.51126 13,1c4.09222,0.50378 8,1 12,1c5,0 9,0 13,0c3,0 7,0 10,0c4,0 8.02249,0.36655 11,0c4.09222,-0.50378 8,-2 12,-2c2,0 5,-1 7,-1c2,0 4.82376,-1.48627 7,-2c1.9465,-0.4595 4.93414,-1.14429 7,-2c2.92157,-1.21014 6,-3 9,-4c3,-1 5.88153,-2.19028 9,-4c1.93399,-1.12234 5,-2 7,-4c1,-1 2.70547,-2.34619 5,-4c1.814,-1.30746 3.31076,-2.53491 5,-4c2.38895,-2.07193 4.186,-2.69254 6,-4c2.29453,-1.65381 3.41885,-2.41885 5,-4c1.58115,-1.58115 1.69254,-3.186 3,-5c0.8269,-1.14728 1.69254,-3.186 3,-5c1.65381,-2.29453 3.41589,-3.76108 5,-7c1.38934,-2.84073 1.78986,-5.07843 3,-8c0.85571,-2.06586 2,-5 3,-7c1,-2 0.23462,-4.15225 1,-6c0.5412,-1.30655 1,-3 1,-5c0,-2 0,-4 0,-7c0,-3 0,-6 0,-9c0,-2 0,-7 0,-8c0,-1 1,-3 1,-5c0,-1 0,-3 0,-4c0,-2 0,-4 0,-5c0,-1 -0.4588,-2.69345 -1,-4c-0.38269,-0.92389 -0.4588,-2.69345 -1,-4c-0.38269,-0.92389 -1,-2 -1,-3c0,-2 -0.61731,-3.07611 -1,-4c-0.5412,-1.30655 -1.4588,-2.69345 -2,-4c-0.38269,-0.92389 -1,-2 -2,-3c-1,-1 -1,-2 -2,-3c-1,-1 -2,-2 -3,-3c-1,-1 -2,-3 -3,-4c-2,-2 -3,-3 -4,-4c-1,-1 -3,-2 -4,-3c-1,-1 -3,-2 -4,-3c-1,-1 -2.69345,-1.4588 -4,-2c-0.92389,-0.38269 -1.82376,-1.48627 -4,-2c-0.97324,-0.22977 -2.82376,-1.48627 -5,-2c-0.97324,-0.22977 -2.82376,-1.48627 -5,-2c-1.9465,-0.4595 -3.87857,-1.49347 -7,-2c-1.97418,-0.32037 -4,-1 -5,-1c-2,0 -3,-1 -4,-1c-1,0 -2,0 -3,0c-1,0 -1,-1 -2,-1c-1,0 -1.70709,0.70709 -1,0c0.70709,-0.70711 0.29291,-1.29289 1,-2c0.70709,-0.70711 1.29291,-0.29289 2,-1c0.70709,-0.70711 0.29291,-2.29289 1,-3c0.70709,-0.70711 1,-1 2,-2c1,-1 1.61731,-2.07613 2,-3c0.5412,-1.30656 2.47427,-3.14935 3,-4c1.17557,-1.90211 2.41885,-2.41885 4,-4c1.58115,-1.58115 2.1731,-2.85274 3,-4c1.30746,-1.814 3.1731,-3.85274 4,-5c1.30746,-1.814 2.69254,-3.186 4,-5c1.65381,-2.29454 4.34619,-3.70546 6,-6c1.30746,-1.814 3,-4 5,-6c2,-2 3.69254,-3.186 5,-5c1.65381,-2.29454 4.41885,-4.41885 6,-6c1.58115,-1.58115 3,-3 5,-5c1,-1 3.41885,-2.41885 5,-4c1.58115,-1.58115 3,-4 4,-5c2,-2 3,-4 4,-5c2,-2 3.69254,-3.186 5,-5c1.65381,-2.29454 2.41885,-3.41885 4,-5c1.58115,-1.58115 2.69254,-2.186 4,-4c0.8269,-1.14726 2,-3 3,-4c2,-2 3,-3 4,-5c1,-2 2,-4 4,-6c1,-1 2,-3 3,-4c1,-1 2.1731,-1.85274 3,-3c1.30743,-1.814 1.61731,-3.07613 2,-4c0.5412,-1.30656 1.69257,-2.186 3,-4c0.8269,-1.14726 1.1731,-2.85274 2,-4c1.30743,-1.814 2.4588,-2.69344 3,-4c0.76538,-1.84776 0.61731,-3.07612 1,-4c0.5412,-1.30656 1.4588,-1.69344 2,-3c0.38269,-0.92388 1,-2 1,-3c0,-1 -0.70709,-2.29289 0,-3c0.70709,-0.70711 1,-1 1,-2c0,-1 0,-2 0,-3c0,-1 0,-2 0,-3c0,-2 0,-3 0,-4c0,-1 0,-2 0,-3c0,-1 0.70709,-2.29289 0,-3c-0.70709,-0.70711 -1.29291,-0.29289 -2,-1c-0.70709,-0.70711 -0.69342,-2.4588 -2,-3c-0.92389,-0.38268 -0.69342,-1.4588 -2,-2c-0.92389,-0.38268 -2.07611,-0.61732 -3,-1c-1.30658,-0.5412 -1.69342,-1.4588 -3,-2c-0.92389,-0.38268 -1.69342,-0.4588 -3,-1c-1.84778,-0.76537 -4,0 -6,0c-1,0 -3,0 -5,0c-2,0 -5,0 -7,0c-2,0 -5,0 -7,0c-2,0 -4.82376,1.48626 -7,2c-2.91974,0.68926 -5.08026,0.31074 -8,1c-2.17624,0.51374 -3.82376,1.48626 -6,2c-1.9465,0.4595 -4.22836,-0.14805 -7,1c-1.30655,0.5412 -3.02676,1.77025 -4,2c-2.17624,0.51374 -3,1 -4,2c-1,1 -3,1 -4,2c-1,1 -2.85272,2.1731 -4,3c-1.814,1.30745 -3,3 -4,4c-1,1 -2.70547,3.34619 -5,5c-1.814,1.30745 -3.1731,2.85273 -4,4c-1.30746,1.814 -3.186,3.69255 -5,5c-2.29453,1.65381 -3,4 -5,6c-2,2 -4,4 -6,6c-2,2 -2.71411,4.21167 -5,7c-0.89661,1.09367 -2.9176,2.38687 -4,5c-0.38269,0.92387 -2,3 -3,5c-1,2 -2,3 -3,5c-1,2 -2.23462,3.15224 -3,5c-0.5412,1.30656 -2.48627,1.82375 -3,4c-0.22977,0.97325 -1.48627,1.82375 -2,4c-0.22977,0.97325 -1.4588,2.69344 -2,4c-0.76538,1.84776 -0.23462,3.15224 -1,5c-0.5412,1.30656 -1.5405,3.0535 -2,5c-0.51373,2.17625 -1,4 -2,6c-1,2 -1.78986,5.07843 -3,8c-0.85571,2.06586 -1.67963,5.02582 -2,7c-0.50653,3.12144 -1.5405,5.0535 -2,7c-0.51373,2.17625 -0.23462,3.15224 -1,5c-0.5412,1.30656 -0.61731,3.07613 -1,4c-0.5412,1.30656 -1,2 -1,4c0,1 0.22977,3.02675 0,4c-0.51373,2.17625 -1,3 -1,4c0,1 0.70709,2.29289 0,3c-0.70709,0.70711 -1.29291,0.29289 -2,1c-0.70709,0.70711 -1,1 -1,2c0,1 0,2 0,3c0,1 0,2 -1,2c-1,0 -2,0 -3,0c-1,0 -2.29291,-0.29289 -3,-1c-0.70709,-0.70711 -1.07611,-0.61731 -2,-1c-1.30655,-0.5412 -2.29291,-0.29289 -3,-1c-0.70709,-0.70711 -0.69345,-1.4588 -2,-2c-0.92389,-0.38269 -1,-1 -2,-1c-1,0 -1.29291,-0.29289 -2,-1c-0.70709,-0.70711 -2.29291,0.70711 -3,0c-0.70709,-0.70711 -1,-1 -2,-1c-1,0 -2,0 -3,0c-1,0 -2,0 -3,0c-1,0 -2,0 -3,0c-1,0 -2,0 -3,0c-1,0 -2,1 -3,1c-2,0 -3,0 -5,0c-1,0 -3,1 -4,1c-1,0 -2,0 -3,0c-1,0 -1,1 -2,1c-1,0 -1,1 -2,1c-1,0 -1.29291,0.29289 -2,1c-0.70709,0.70711 -2,0 -2,-1c0,-1 0.4588,-1.69344 1,-3c0.76538,-1.84776 0,-4 0,-5c0,-3 0,-5 0,-8c0,-2 0,-5 0,-7c0,-3 0,-6 0,-8c0,-3 0,-7 0,-11c0,-3 0,-7 0,-12c0,-4 0,-8 0,-13c0,-3 -0.49622,-5.90779 -1,-10c-0.36655,-2.97752 -0.51944,-6.03874 -1,-9c-0.50653,-3.12144 -2,-7 -3,-10c-1,-3 -0.78986,-5.07843 -2,-8c-0.85571,-2.06586 -1,-5 -2,-7c-1,-2 -2.69254,-5.186 -4,-7c-1.65381,-2.29454 -3,-4 -5,-6c-2,-2 -4.4505,-4.45049 -7,-7c-2.5495,-2.54951 -4.4505,-5.45049 -7,-8c-2.5495,-2.54951 -7,-4 -10,-6c-3,-2 -6,-4 -9,-6c-3,-2 -6.15927,-2.61065 -9,-4c-3.23892,-1.58411 -6,-3 -8,-4c-2,-1 -3.82376,-1.48626 -6,-2c-0.97324,-0.22975 -3,0 -4,0c-1,0 -2,0 -3,0c-1,0 -2.07613,-0.38268 -3,0c-1.30656,0.5412 -2.15224,1.23463 -4,2c-1.30656,0.5412 -2.85274,2.1731 -4,3c-1.814,1.30745 -3.69344,2.4588 -5,3c-0.92387,0.38268 -1.82375,1.48626 -4,2c-0.97325,0.22975 -1,1 -2,2c-1,1 -1,2 -2,3c-1,1 -1.23463,2.15224 -2,4c-0.5412,1.30656 -2.1731,1.85273 -3,3c-1.30745,1.814 -1.4588,2.69344 -2,4c-0.38269,0.92388 -1.4588,2.69344 -2,4c-0.38269,0.92388 -0.77025,2.02675 -1,3c-0.51375,2.17625 -0.77025,3.02675 -1,4c-0.51375,2.17625 -1,3 -1,4c0,1 0,2 0,3c0,1 0.23463,2.15224 1,4c0.5412,1.30656 0.23463,2.15224 1,4c0.5412,1.30656 1.23463,3.15224 2,5c0.5412,1.30656 2.48625,2.82375 3,5c0.4595,1.9465 1.1731,3.85274 2,5c1.30745,1.814 1.69255,4.186 3,6c1.65381,2.29454 2.34619,3.70546 4,6c1.30745,1.814 1.41885,4.41885 3,6c1.58115,1.58115 2.69255,3.186 4,5c0.8269,1.14726 2,3 3,4c2,2 3.1731,2.85274 4,4c1.30745,1.814 2.23463,3.15224 3,5c0.5412,1.30656 3,3 4,4c1,1 2,3 3,4c1,1 1.85274,3.1731 3,4c1.814,1.30745 2.69254,2.186 4,4c0.8269,1.14726 3,3 4,4c2,2 2.69254,3.186 4,5c0.8269,1.14726 2.41885,2.41885 4,4c1.58115,1.58115 1.41885,3.41885 3,5c1.58115,1.58115 3.1731,2.85274 4,4c1.30746,1.814 1.69254,3.186 3,5c0.8269,1.14726 2,2 3,3c1,1 2.4588,1.69344 3,3c0.38269,0.92387 1.4588,1.69344 2,3c0.38269,0.92387 0.29291,1.29289 1,2c0.70709,0.70711 0.29291,1.29289 1,2c0.70709,0.70711 0.69345,1.4588 2,2c0.92389,0.38269 1,1 2,2c1,1 2,2 3,3c1,1 1.29291,2.29289 2,3c0.70709,0.70711 0.29291,1.29289 1,2c0.70709,0.70711 1,1 1,2c0,1 0.48627,1.82375 1,4c0.22977,0.97325 0,2 0,3c0,1 -0.29291,1.29291 -1,2c-0.70709,0.70709 -1.29291,0.29291 -2,1c-0.70709,0.70709 -1,1 -2,1c-1,0 -1.29291,0.29291 -2,1c-0.70709,0.70709 -1,2 -2,3c-1,1 -1.29291,1.29291 -2,2c-0.70709,0.70709 -0.29291,1.29291 -1,2c-0.70709,0.70709 -1.29291,1.29291 -2,2c-0.70709,0.70709 -1.07611,0.61731 -2,1c-1.30655,0.5412 -1.29291,1.29291 -2,2c-0.70709,0.70709 -1.07611,0.61731 -2,1c-1.30655,0.5412 -1.07611,1.61731 -2,2c-1.30655,0.5412 -1,2 -2,3c-1,1 -2.29291,1.29291 -3,2c-0.70709,0.70709 -0.29291,1.29291 -1,2c-0.70709,0.70709 -1,1 -2,1l0,1l-1,0" id="svg_1" stroke="#000" fill="none"/>
  <path d="m406,312c0,-1 0.29291,-2.29291 1,-3c0.70709,-0.70709 1.07611,-0.61731 2,-1c1.30655,-0.5412 2.07611,-1.61731 3,-2c1.30655,-0.5412 1.29291,-1.29291 2,-2c0.70709,-0.70709 1.29291,-0.29291 2,-1c0.70709,-0.70709 1.29291,-0.29291 2,-1c0.70709,-0.70709 1.29291,-0.29291 2,-1c0.70709,-0.70709 2,0 3,0c1,0 2,0 3,0c1,0 2.02676,-0.22977 3,0c2.17624,0.51373 5.0535,1.5405 7,2c2.17624,0.51373 4.07611,1.61731 5,2c1.30655,0.5412 2.29291,0.29291 3,1c0.70709,0.70709 1,1 2,2c1,1 2.1731,1.85272 3,3c1.30746,1.814 2.4588,2.69345 3,4c0.38269,0.92389 1,1 1,2l1,0" id="svg_2" stroke="#000" fill="none"/>
  <path stroke="#000" d="m288,312c1.08,0 1.08,-1 2.16,-2c1.08,-1 2.16,-2 3.24,-3c1.08,-1 2.16,-2 3.24,-3c1.08,-1 1.82893,-2.4588 3.24,-3c0.9978,-0.38269 1.82893,-1.4588 3.24,-2c0.9978,-0.38269 1.82893,-1.4588 3.24,-2c0.9978,-0.38269 1.08,-1 2.16,-1c1.08,0 1.08,-1 2.16,-1c1.08,0 1.39634,-0.29291 2.16,-1c0.76366,-0.70709 2.16,0 3.24,0c1.08,0 2.16,0 3.24,0c1.08,0 1.82893,0.4588 3.24,1c0.9978,0.38269 1.82893,0.4588 3.24,1c0.9978,0.38269 1.82893,1.4588 3.24,2c0.9978,0.38269 2.16,1 3.24,2c1.08,1 2.90893,2.4588 4.32,3c0.9978,0.38269 1.1622,0.61731 2.16,1c1.41107,0.5412 2.16,1 2.16,2l1.08,0" id="svg_3" fill="none"/>
  <path d="m151,260c-1,0 -2,0 -3,0l-1,0l-1,0" id="svg_4" stroke="#000" fill="none"/>
  <path d="m359,352c0,-1 -1.29291,-0.29291 -2,-1c-0.70709,-0.70709 -1,-1 -2,-2c-1,-1 -0.29291,-2.29291 -1,-3c-0.70709,-0.70709 -1,-1 -1,-2c0,-1 -0.4588,-1.69345 -1,-3c-0.38269,-0.92389 0,-2 0,-3c0,-1 -0.70709,-2.29291 0,-3c0.70709,-0.70709 2,0 3,0c1,0 2.29291,-0.70709 3,0c0.70709,0.70709 0.29291,1.29291 1,2c0.70709,0.70709 0.29291,2.70709 1,2c0.70709,-0.70709 -0.70709,-2.29291 0,-3c0.70709,-0.70709 2,-1 3,-1c1,0 2,0 3,0c1,0 2.07611,-0.38269 3,0c1.30655,0.5412 1.69345,1.4588 3,2c0.92389,0.38269 2,0 2,1c0,1 0.70709,2.29291 0,3c-0.70709,0.70709 -1.29291,0.29291 -2,1c-0.70709,0.70709 -1.29291,0.29291 -2,1c-0.70709,0.70709 -1,1 -2,1c-1,0 -2.29291,0.29291 -3,1c-0.70709,0.70709 -0.61731,1.07611 -1,2c-0.5412,1.30655 -1,2 -2,2l0,1l0,1l-1,0" id="svg_5" stroke="#000" fill="none"/>
  <path d="m328,366c0,1 -0.61731,2.07611 -1,3c-0.5412,1.30655 -0.61731,2.07611 -1,3c-0.5412,1.30655 -1,2 -1,3c0,1 -1,3 -1,4c0,1 -0.48627,1.82376 -1,4c-0.4595,1.9465 0,3 0,5c0,1 0,2 0,3c0,1 1,1 2,1c1,0 2.02676,0.22977 3,0c2.17624,-0.51373 4.70547,-2.34619 7,-4c1.814,-1.30746 4,-3 7,-4c3,-1 6,-2 8,-3c2,-1 4.07611,-1.61731 5,-2c1.30655,-0.5412 1.29291,-1.29291 2,-2c0.70709,-0.70709 1.07611,0.61731 2,1c1.30655,0.5412 2.186,1.69254 4,3c1.14728,0.8269 4.31,2.33749 7,4c2.40601,1.487 5.93414,4.14429 8,5c2.92157,1.21014 4.87857,2.49347 8,3c1.97418,0.32037 3.69345,1.4588 5,2c1.84775,0.76538 3.29291,0.70709 4,0c0.70709,-0.70709 1,-2 1,-3c0,-1 0.77023,-1.02676 1,-2c0.51373,-2.17624 1.4588,-2.69345 2,-4c0.76538,-1.84775 -0.22977,-3.02676 0,-4c0.51373,-2.17624 1,-4 1,-5c0,-2 1,-3 1,-4c0,-1 1,-3 1,-4l0,-1" id="svg_6" stroke="#000" fill="none"/>
  <polyline stroke-linecap="round" id="svg_7" points="996,87 996,88 " stroke="#000" fill="none"/>
 </g>
</svg>